<?xml version="1.0" encoding="UTF-8" standalone="no"?>
<!-- Generator: Adobe Illustrator 16.0.0, SVG Export Plug-In . SVG Version: 6.00 Build 0)  -->

<svg
   xmlns:dc="http://purl.org/dc/elements/1.1/"
   xmlns:cc="http://creativecommons.org/ns#"
   xmlns:rdf="http://www.w3.org/1999/02/22-rdf-syntax-ns#"
   xmlns:svg="http://www.w3.org/2000/svg"
   xmlns="http://www.w3.org/2000/svg"
   xmlns:sodipodi="http://sodipodi.sourceforge.net/DTD/sodipodi-0.dtd"
   xmlns:inkscape="http://www.inkscape.org/namespaces/inkscape"
   version="1.1"
   id="Capa_1"
   x="0px"
   y="0px"
   width="510px"
   height="510px"
   viewBox="0 0 510 510"
   style="enable-background:new 0 0 510 510;"
   xml:space="preserve"
   inkscape:version="0.91 r13725"
   sodipodi:docname="plane.svg"><metadata
     id="metadata42"><rdf:RDF><cc:Work
         rdf:about=""><dc:format>image/svg+xml</dc:format><dc:type
           rdf:resource="http://purl.org/dc/dcmitype/StillImage" /><dc:title></dc:title></cc:Work></rdf:RDF></metadata><defs
     id="defs40" /><sodipodi:namedview
     pagecolor="#ffffff"
     bordercolor="#666666"
     borderopacity="1"
     objecttolerance="10"
     gridtolerance="10"
     guidetolerance="10"
     inkscape:pageopacity="0"
     inkscape:pageshadow="2"
     inkscape:window-width="1920"
     inkscape:window-height="1017"
     id="namedview38"
     showgrid="false"
     inkscape:zoom="0.4627451"
     inkscape:cx="255"
     inkscape:cy="255"
     inkscape:window-x="-8"
     inkscape:window-y="-8"
     inkscape:window-maximized="1"
     inkscape:current-layer="Capa_1" /><g
     id="g3"><g
       id="flights"><path
         d="M510,255c0-20.4-17.85-38.25-38.25-38.25H331.5L204,12.75h-51l63.75,204H76.5l-38.25-51H0L25.5,255L0,344.25h38.25    l38.25-51h140.25l-63.75,204h51l127.5-204h140.25C492.15,293.25,510,275.4,510,255z"
         id="path6" /></g></g><g
     id="g8" /><g
     id="g10" /><g
     id="g12" /><g
     id="g14" /><g
     id="g16" /><g
     id="g18" /><g
     id="g20" /><g
     id="g22" /><g
     id="g24" /><g
     id="g26" /><g
     id="g28" /><g
     id="g30" /><g
     id="g32" /><g
     id="g34" /><g
     id="g36" /><path
     style="fill:#0000ff"
     d="m 184.70907,399.24788 c 16.85917,-53.78231 31.37121,-99.97405 32.24897,-102.6483 l 1.59593,-4.86229 -71.23331,0 -71.233315,0 -19.134774,25.85283 -19.134774,25.85285 -17.82839,0.0793 c -9.805615,0.0437 -17.8283901,-0.63167 -17.8283901,-1.50079 0,-0.86911 5.4847812,-20.80449 12.1884031,-44.30084 L 26.537822,255 14.34942,212.27936 C 7.6457981,188.783 2.1610169,168.84762 2.1610169,167.97851 c 0,-0.86911 8.0227751,-1.54449 17.8283901,-1.50084 l 17.82839,0.0794 19.134774,25.85284 19.134774,25.85283 71.318885,0 c 56.15854,0 71.10204,-0.57421 70.2987,-2.70127 -3.19074,-8.44849 -62.11171,-198.528489 -62.11171,-200.373393 0,-1.386467 8.88642,-2.221945 23.63332,-2.221945 l 23.63333,0 64.15033,102.648308 64.15033,102.6483 74.3787,0 c 70.35657,0 74.84137,0.23603 82.93428,4.36473 26.41067,13.47371 26.41067,51.27141 0,64.74513 -8.09291,4.12869 -12.57771,4.36472 -82.93428,4.36472 l -74.3787,0 -64.15033,102.6483 -64.15033,102.64831 -24.40191,0 -24.40192,0 30.65303,-97.78602 z"
     id="path3370"
     inkscape:connector-curvature="0" /><flowRoot
     xml:space="preserve"
     id="flowRoot3357"
     style="fill:black;stroke:none;stroke-opacity:1;stroke-width:1px;stroke-linejoin:miter;stroke-linecap:butt;fill-opacity:1;font-family:sans-serif;font-style:normal;font-weight:normal;font-size:40px;line-height:125%;letter-spacing:0px;word-spacing:0px"><flowRegion
       id="flowRegion3359"><rect
         id="rect3361"
         width="373.85593"
         height="62.669491"
         x="97.245766"
         y="226.90678" /></flowRegion><flowPara
       id="flowPara3363" /></flowRoot><path
     style="fill:#ffff00"
     id="path3359"
     d="m 282.66651,245.11026 c -6.44822,-4.28601 -13.75564,-6.49506 -21.29246,-7.86981 -3.76653,-0.47574 -7.76121,-1.42834 -11.37905,0.25248 -0.68257,0.31712 -2.58219,1.54715 -1.92659,1.17747 8.5306,-4.81021 17.03516,-9.66647 25.55274,-14.4997 -4.33896,2.7477 -6.59293,7.3294 -8.51723,11.91249 -1.72753,4.4832 -2.08061,9.26355 -2.27566,14.0139 -0.53521,5.04825 0.1625,9.64715 2.17845,14.26253 1.80354,5.3592 5.49708,9.53699 9.56501,13.30865 3.74051,3.19864 7.86399,5.28578 12.65744,6.28026 2.9242,0.56033 5.71797,0.60148 8.49603,-0.61399 0.73114,-0.31989 2.78513,-1.55993 2.0913,-1.16557 -8.46123,4.80917 -16.92907,9.60672 -25.3936,14.41009 4.66747,-2.4662 7.08626,-6.43829 9.00492,-11.1591 1.96756,-5.68625 2.24541,-11.73406 2.46709,-17.69205 0.11276,-5.18115 0.31901,-10.35424 -0.44278,-15.49164 -3.88321,-13.10603 -6.78125,-2.67665 27.05901,-16.85963 0.47061,-0.19724 -0.0509,1.02162 -0.0165,1.53073 0.0413,0.61118 0.16194,1.2144 0.24291,1.82161 0.26201,4.57523 1.68857,8.64098 3.77352,12.66623 2.77905,5.61746 6.85954,10.37524 10.99422,15.0229 3.67582,4.66732 8.70959,7.58537 13.75798,10.48905 4.38414,2.3574 9.38553,2.83148 14.26745,3.15187 0,0 -26.12703,18.62788 -26.12703,18.62788 l 0,0 c -5.23285,-0.59081 -10.46108,-1.55081 -15.03783,-4.31997 -5.29666,-3.09756 -10.29613,-6.59468 -14.18484,-11.42917 -4.29491,-4.85962 -8.55286,-9.80058 -11.54118,-15.60633 -2.26233,-4.29123 -3.96506,-8.65855 -4.31355,-13.55088 -0.0175,-0.0947 -0.78906,-4.10122 -0.68233,-4.17219 30.0937,-20.01142 25.50321,-26.55524 30.17843,-12.3884 0.88225,5.34102 0.84951,10.67147 0.62398,16.07933 -0.18211,6.23053 -0.37362,12.51463 -1.96078,18.5805 -1.67744,5.06829 -3.58195,9.97625 -8.13147,13.16729 -15.43161,8.8166 -25.10018,20.90095 -41.57278,17.11393 -5.05793,-1.54452 -9.53535,-4.11803 -13.47106,-7.68151 -4.27151,-4.11277 -8.20801,-8.71097 -10.26926,-14.36185 -2.26446,-5.00168 -3.3597,-10.02522 -2.83262,-15.55236 0.11473,-5.04274 0.29122,-10.1215 1.81815,-14.9773 1.7355,-5.01005 3.93755,-9.94092 7.68159,-13.78036 22.18706,-12.80396 24.33082,-20.50892 43.85913,-16.80325 7.79787,1.75776 15.25684,4.4632 22.071,8.72413 0,0 -26.97174,17.38174 -26.97174,17.38174 z"
     inkscape:connector-curvature="0" /></svg>